<svg width="648" height="394" viewBox="0 0 648 394" fill="none" xmlns="http://www.w3.org/2000/svg">
<rect x="0.5" y="0.5" width="323" height="223" fill="black" stroke="white"/>
<rect x="324.5" y="0.5" width="323" height="223" fill="black" stroke="white"/>
<path d="M105.59 117.8C105.59 122.14 106.465 125.885 108.215 129.035C110.035 132.185 112.485 134.635 115.565 136.385C118.645 138.065 122.145 138.905 126.065 138.905C130.055 138.905 133.59 138.065 136.67 136.385C139.82 134.635 142.27 132.185 144.02 129.035C145.84 125.885 146.75 122.14 146.75 117.8V68.45H151.79V118.115C151.79 123.505 150.635 128.125 148.325 131.975C146.085 135.825 143.005 138.765 139.085 140.795C135.235 142.825 130.895 143.84 126.065 143.84C121.235 143.84 116.86 142.825 112.94 140.795C109.09 138.765 106.045 135.825 103.805 131.975C101.565 128.125 100.445 123.505 100.445 118.115V68.45H105.59V117.8ZM168.803 68.45H175.208L223.718 143H217.208L168.803 68.45ZM167.753 143L192.953 103.625L195.683 108.14L174.053 143H167.753ZM195.368 101.945L216.263 68.45H222.353L198.308 106.04L195.368 101.945Z" fill="white"/>
<rect x="1.5" y="224.5" width="645" height="169" fill="white" stroke="white"/>
<path d="M210.145 265.66H216.025L240.7 333.07L239.545 332.755L255.085 290.755L257.5 297.37L239.545 343.465L210.145 265.66ZM244.48 265.66H249.625L275.245 333.07L273.67 332.65L298.66 265.66H304.12L274.195 343.36L244.48 265.66ZM326.326 340.84C322.056 340.84 318.276 339.895 314.986 338.005C311.696 336.115 309.106 333.56 307.216 330.34C305.396 327.05 304.486 323.375 304.486 319.315C304.486 315.325 305.466 311.685 307.426 308.395C309.386 305.105 312.011 302.48 315.301 300.52C318.661 298.56 322.371 297.58 326.431 297.58C331.331 297.58 335.426 299.015 338.716 301.885C342.076 304.755 344.491 308.5 345.961 313.12L310.051 326.98L308.581 323.41L341.446 310.6L340.396 312.07C339.206 309.27 337.386 306.855 334.936 304.825C332.556 302.795 329.616 301.78 326.116 301.78C322.966 301.78 320.131 302.55 317.611 304.09C315.091 305.63 313.061 307.695 311.521 310.285C310.051 312.875 309.316 315.815 309.316 319.105C309.316 322.185 310.016 325.055 311.416 327.715C312.886 330.375 314.916 332.51 317.506 334.12C320.096 335.73 323.071 336.535 326.431 336.535C328.671 336.535 330.806 336.115 332.836 335.275C334.936 334.435 336.791 333.35 338.401 332.02L340.921 335.59C338.961 337.13 336.686 338.39 334.096 339.37C331.576 340.35 328.986 340.84 326.326 340.84ZM382.638 340.84C378.438 340.84 374.588 339.755 371.088 337.585C367.658 335.415 365.138 332.685 363.528 329.395L364.578 326.56V340H359.643V260.2H364.578V311.02L363.948 308.29C365.558 305.07 368.113 302.515 371.613 300.625C375.113 298.665 378.963 297.685 383.163 297.685C387.013 297.685 390.513 298.63 393.663 300.52C396.813 302.34 399.298 304.86 401.118 308.08C403.008 311.3 403.953 314.975 403.953 319.105C403.953 323.725 402.973 327.68 401.013 330.97C399.053 334.19 396.463 336.64 393.243 338.32C390.023 340 386.488 340.84 382.638 340.84ZM381.798 336.535C385.298 336.535 388.308 335.8 390.828 334.33C393.418 332.79 395.413 330.725 396.813 328.135C398.213 325.475 398.913 322.465 398.913 319.105C398.913 315.955 398.178 313.085 396.708 310.495C395.308 307.835 393.313 305.735 390.723 304.195C388.203 302.585 385.228 301.78 381.798 301.78C378.928 301.78 376.268 302.375 373.818 303.565C371.438 304.755 369.443 306.365 367.833 308.395C366.223 310.425 365.138 312.77 364.578 315.43V321.835C364.858 324.425 365.768 326.84 367.308 329.08C368.848 331.32 370.878 333.14 373.398 334.54C375.918 335.87 378.718 336.535 381.798 336.535Z" fill="black"/>
<path d="M360.865 62.45H366.01V132.065H406.855V137H360.865V62.45ZM417.622 116.21C417.622 112.22 418.567 108.58 420.457 105.29C422.417 102 425.042 99.41 428.332 97.52C431.692 95.56 435.437 94.58 439.567 94.58C443.767 94.58 447.512 95.56 450.802 97.52C454.092 99.41 456.682 102 458.572 105.29C460.462 108.58 461.407 112.22 461.407 116.21C461.407 120.2 460.462 123.84 458.572 127.13C456.682 130.42 454.057 133.045 450.697 135.005C447.407 136.895 443.697 137.84 439.567 137.84C435.367 137.84 431.622 136.93 428.332 135.11C425.042 133.22 422.417 130.665 420.457 127.445C418.567 124.155 417.622 120.41 417.622 116.21ZM422.557 116.315C422.557 119.535 423.292 122.475 424.762 125.135C426.302 127.725 428.332 129.79 430.852 131.33C433.442 132.87 436.312 133.64 439.462 133.64C442.612 133.64 445.447 132.87 447.967 131.33C450.557 129.79 452.587 127.725 454.057 125.135C455.597 122.475 456.367 119.535 456.367 116.315C456.367 113.095 455.597 110.19 454.057 107.6C452.587 104.94 450.557 102.84 447.967 101.3C445.447 99.69 442.612 98.885 439.462 98.885C436.242 98.885 433.337 99.725 430.747 101.405C428.227 103.015 426.232 105.15 424.762 107.81C423.292 110.47 422.557 113.305 422.557 116.315ZM494.33 157.055C492.02 157.055 489.815 156.775 487.715 156.215C485.615 155.725 483.55 154.85 481.52 153.59C479.49 152.33 477.39 150.685 475.22 148.655L478.16 145.295C481.17 148.165 483.97 150.09 486.56 151.07C489.15 152.12 491.67 152.645 494.12 152.645C498.39 152.645 501.785 151.945 504.305 150.545C506.825 149.215 508.645 147.395 509.765 145.085C510.885 142.845 511.48 140.325 511.55 137.525L511.655 124.19L512.81 125.45C511.41 129.09 508.89 132.065 505.25 134.375C501.68 136.685 497.62 137.84 493.07 137.84C489.22 137.84 485.685 136.895 482.465 135.005C479.315 133.045 476.795 130.455 474.905 127.235C473.015 123.945 472.07 120.305 472.07 116.315C472.07 112.045 473.05 108.3 475.01 105.08C476.97 101.86 479.63 99.34 482.99 97.52C486.35 95.63 490.06 94.685 494.12 94.685C497.9 94.685 501.47 95.665 504.83 97.625C508.26 99.585 510.745 102.175 512.285 105.395L511.655 107.705L512.18 95.945H516.59V137.63C516.59 140.99 515.82 144.14 514.28 147.08C512.81 150.09 510.43 152.505 507.14 154.325C503.92 156.145 499.65 157.055 494.33 157.055ZM477.005 116.21C477.005 119.43 477.775 122.37 479.315 125.03C480.855 127.62 482.92 129.72 485.51 131.33C488.17 132.87 491.11 133.64 494.33 133.64C497.41 133.64 500.21 132.975 502.73 131.645C505.25 130.245 507.315 128.39 508.925 126.08C510.535 123.77 511.445 121.285 511.655 118.625V112.535C511.095 109.875 509.975 107.53 508.295 105.5C506.685 103.47 504.655 101.86 502.205 100.67C499.825 99.48 497.2 98.885 494.33 98.885C491.11 98.885 488.17 99.62 485.51 101.09C482.92 102.56 480.855 104.59 479.315 107.18C477.775 109.77 477.005 112.78 477.005 116.21ZM531.337 116.21C531.337 112.22 532.282 108.58 534.172 105.29C536.132 102 538.757 99.41 542.047 97.52C545.407 95.56 549.152 94.58 553.282 94.58C557.482 94.58 561.227 95.56 564.517 97.52C567.807 99.41 570.397 102 572.287 105.29C574.177 108.58 575.122 112.22 575.122 116.21C575.122 120.2 574.177 123.84 572.287 127.13C570.397 130.42 567.772 133.045 564.412 135.005C561.122 136.895 557.412 137.84 553.282 137.84C549.082 137.84 545.337 136.93 542.047 135.11C538.757 133.22 536.132 130.665 534.172 127.445C532.282 124.155 531.337 120.41 531.337 116.21ZM536.272 116.315C536.272 119.535 537.007 122.475 538.477 125.135C540.017 127.725 542.047 129.79 544.567 131.33C547.157 132.87 550.027 133.64 553.177 133.64C556.327 133.64 559.162 132.87 561.682 131.33C564.272 129.79 566.302 127.725 567.772 125.135C569.312 122.475 570.082 119.535 570.082 116.315C570.082 113.095 569.312 110.19 567.772 107.6C566.302 104.94 564.272 102.84 561.682 101.3C559.162 99.69 556.327 98.885 553.177 98.885C549.957 98.885 547.052 99.725 544.462 101.405C541.942 103.015 539.947 105.15 538.477 107.81C537.007 110.47 536.272 113.305 536.272 116.315ZM599.436 137.84C597.056 137.84 594.571 137.42 591.981 136.58C589.391 135.67 587.291 134.235 585.681 132.275L587.991 129.02C589.391 130.49 591.036 131.68 592.926 132.59C594.886 133.43 596.951 133.85 599.121 133.85C600.731 133.85 602.236 133.64 603.636 133.22C605.106 132.73 606.296 131.925 607.206 130.805C608.116 129.685 608.571 128.18 608.571 126.29C608.571 124.33 608.011 122.825 606.891 121.775C605.841 120.725 604.476 119.885 602.796 119.255C601.186 118.555 599.471 117.925 597.651 117.365C594.641 116.385 592.156 115.055 590.196 113.375C588.306 111.695 587.361 109.315 587.361 106.235C587.361 103.995 587.886 102.035 588.936 100.355C590.056 98.675 591.561 97.38 593.451 96.47C595.341 95.49 597.476 95 599.856 95C602.026 95 604.161 95.35 606.261 96.05C608.431 96.75 610.391 97.94 612.141 99.62L609.936 103.085C608.816 101.545 607.311 100.495 605.421 99.935C603.601 99.375 601.991 99.06 600.591 98.99C599.401 98.99 598.141 99.235 596.811 99.725C595.551 100.215 594.466 100.95 593.556 101.93C592.716 102.84 592.296 104.065 592.296 105.605C592.296 107.215 592.751 108.545 593.661 109.595C594.571 110.575 595.726 111.38 597.126 112.01C598.596 112.64 600.101 113.235 601.641 113.795C603.671 114.425 605.561 115.195 607.311 116.105C609.131 116.945 610.601 118.1 611.721 119.57C612.911 120.97 613.506 122.86 613.506 125.24C613.506 127.62 612.981 129.79 611.931 131.75C610.881 133.64 609.306 135.145 607.206 136.265C605.176 137.315 602.586 137.84 599.436 137.84Z" fill="white"/>
</svg>
