<svg width="73" height="73" viewBox="0 0 73 73" fill="none" xmlns="http://www.w3.org/2000/svg">
<path d="M21.5682 0C9.67582 0 0 9.67582 0 21.5682V51.4318C0 63.3242 9.67582 73 21.5682 73H51.4318C63.3242 73 73 63.3242 73 51.4318V21.5682C73 9.67582 63.3242 0 51.4318 0H21.5682ZM21.5682 3.31818H51.4318C61.529 3.31818 69.6818 11.471 69.6818 21.5682V51.4318C69.6818 61.529 61.529 69.6818 51.4318 69.6818H21.5682C11.471 69.6818 3.31818 61.529 3.31818 51.4318V21.5682C3.31818 11.471 11.471 3.31818 21.5682 3.31818ZM56.4091 13.2727C55.5291 13.2727 54.6851 13.6223 54.0628 14.2446C53.4405 14.8669 53.0909 15.7109 53.0909 16.5909C53.0909 17.4709 53.4405 18.3149 54.0628 18.9372C54.6851 19.5595 55.5291 19.9091 56.4091 19.9091C57.2891 19.9091 58.1331 19.5595 58.7554 18.9372C59.3777 18.3149 59.7273 17.4709 59.7273 16.5909C59.7273 15.7109 59.3777 14.8669 58.7554 14.2446C58.1331 13.6223 57.2891 13.2727 56.4091 13.2727ZM36.5 18.25C26.4409 18.25 18.25 26.4409 18.25 36.5C18.25 46.5591 26.4409 54.75 36.5 54.75C46.5591 54.75 54.75 46.5591 54.75 36.5C54.75 26.4409 46.5591 18.25 36.5 18.25ZM36.5 21.5682C44.7656 21.5682 51.4318 28.2344 51.4318 36.5C51.4318 44.7656 44.7656 51.4318 36.5 51.4318C28.2344 51.4318 21.5682 44.7656 21.5682 36.5C21.5682 28.2344 28.2344 21.5682 36.5 21.5682Z" fill="white"/>
</svg>
